<!DOCTYPE svg PUBLIC "-//W3C//DTD SVG 1.1//EN" "http://www.w3.org/Graphics/SVG/1.1/DTD/svg11.dtd">
<!-- Uploaded to: SVG Repo, www.svgrepo.com, Transformed by: SVG Repo Mixer Tools -->
<svg version="1.1" id="_x32_" xmlns="http://www.w3.org/2000/svg" xmlns:xlink="http://www.w3.org/1999/xlink" width="256px" height="256px" viewBox="-133.12 -133.12 778.24 778.24" xml:space="preserve" fill="#fdfdfd" transform="rotate(45)">
<g id="SVGRepo_bgCarrier" stroke-width="0"/>
<g id="SVGRepo_tracerCarrier" stroke-linecap="round" stroke-linejoin="round" stroke="#CCCCCC" stroke-width="1.024"/>
<g id="SVGRepo_iconCarrier"> <style type="text/css">  .st0{fill:#fdfdfd;}  </style> <g> <path class="st0" d="M509.915,2.067C498.446-9.417,371.29,29.161,331.086,60.974L451.04,180.927 C482.853,140.708,521.415,13.567,509.915,2.067z"/> <path class="st0" d="M268.743,122.677l-41.344,10.328L42.211,318.208l12.047,12.063l-16.359,16.344l-12.063-12.047L0.008,360.396 l151.594,151.608l25.844-25.844l-12.063-12.063l16.359-16.359l12.063,12.047l185.188-185.171l10.344-41.359 c0,0,18.703-18.719,48.25-48.234L316.993,74.442C287.461,103.942,268.743,122.677,268.743,122.677z"/> </g> </g>
</svg>